<svg xmlns="http://www.w3.org/2000/svg" xmlns:xlink="http://www.w3.org/1999/xlink" viewBox="0 0 810.03 750.89"><defs><style>.cls-1{fill:#f4b286;}.cls-2{fill:#fad896;fill-rule:evenodd;}.cls-3{fill:#e81d3e;}.cls-4{fill:#ce1d3f;}.cls-5{fill:url(#linear-gradient);}.cls-6{fill:url(#linear-gradient-2);}.cls-7{fill:#c9900f;}.cls-8{fill:url(#linear-gradient-3);}.cls-9{fill:url(#linear-gradient-4);}.cls-10{fill:url(#linear-gradient-5);}.cls-11{fill:url(#linear-gradient-6);}.cls-12{fill:url(#linear-gradient-7);}.cls-13,.cls-14{font-size:124.83px;fill:#f1f1f1;font-family:Chalkduster, Chalkduster;}.cls-14{letter-spacing:-0.07em;}.cls-15{letter-spacing:-0.05em;}</style><linearGradient id="linear-gradient" x1="418.84" y1="610.64" x2="647.15" y2="610.64" gradientUnits="userSpaceOnUse"><stop offset="0" stop-color="#fdd782"/><stop offset="0.19" stop-color="#fdd680"/><stop offset="0.26" stop-color="#fed479"/><stop offset="0.31" stop-color="#ffd06e"/><stop offset="0.32" stop-color="#ffcf69"/><stop offset="0.56" stop-color="#ffcf69"/><stop offset="0.6" stop-color="#ffcf69"/><stop offset="0.61" stop-color="#ffcd64"/><stop offset="0.67" stop-color="#fec659"/><stop offset="0.76" stop-color="#fec352"/><stop offset="1" stop-color="#fec250"/></linearGradient><linearGradient id="linear-gradient-2" x1="301.98" y1="558.53" x2="516.45" y2="558.53" gradientUnits="userSpaceOnUse"><stop offset="0" stop-color="#fad896"/><stop offset="0.17" stop-color="#fad894"/><stop offset="0.23" stop-color="#fbd68d"/><stop offset="0.28" stop-color="#fcd482"/><stop offset="0.31" stop-color="#fed171"/><stop offset="0.32" stop-color="#ffcf69"/><stop offset="0.56" stop-color="#ffcf69"/><stop offset="0.6" stop-color="#ffcf69"/><stop offset="0.61" stop-color="#ffcd64"/><stop offset="0.67" stop-color="#fec659"/><stop offset="0.76" stop-color="#fec352"/><stop offset="1" stop-color="#fec250"/></linearGradient><linearGradient id="linear-gradient-3" x1="523.48" y1="675" x2="731.15" y2="675" xlink:href="#linear-gradient"/><linearGradient id="linear-gradient-4" x1="371.44" y1="671.25" x2="584.17" y2="671.25" xlink:href="#linear-gradient"/><linearGradient id="linear-gradient-5" x1="97.12" y1="680.43" x2="265.96" y2="680.43" xlink:href="#linear-gradient"/><linearGradient id="linear-gradient-6" x1="172" y1="621.64" x2="378.6" y2="621.64" xlink:href="#linear-gradient"/><linearGradient id="linear-gradient-7" x1="234.34" y1="665.08" x2="466" y2="665.08" xlink:href="#linear-gradient"/></defs><title>Asset 10</title><g id="Layer_2" data-name="Layer 2"><g id="Layer_1-2" data-name="Layer 1"><path class="cls-1" d="M381.14,78.3l-18.5-5,10.77-15.5-7.87-20.9-52.26-1L236.18,218l55.67,1.09,14.6-34.66,60.13,1.17,13,35.19,55.67,1.09Zm-61.55,65.12,18.6-51.12,16.59,51.81Z"/><path class="cls-2" d="M269.05,35l52.25,1L391,221l-55.67-1.09-13-35.19-60.14-1.17-14.59,34.66L192,217.12Zm41.5,108.25L294,91.44l-18.59,51.12Z"/><path class="cls-1" d="M125.54,92.39l-57,18.86L51.08,58.49,227.86,0l17.45,52.76-57,18.86L241,230.82l-62.77,20.77Z"/><polygon class="cls-2" points="0 75.39 17.46 128.15 74.46 109.29 83.61 136.92 98.74 139.78 102.91 152.37 92.91 165.04 118.4 171.25 102.69 194.61 127.14 268.49 189.9 247.72 137.23 88.52 194.24 69.66 176.78 16.9 0 75.39"/><path class="cls-1" d="M469.71,19.77l57,7L509,171.38l77.69,9.5-5.86,47.94L446.15,212.34Z"/><polygon class="cls-2" points="462.64 165.7 480.33 21.07 423.3 14.09 399.75 206.66 446.15 212.34 456.93 201.96 472.4 203.85 477.76 216.21 503.31 198.91 520.83 221.48 534.46 223.14 540.33 175.21 462.64 165.7"/><polygon class="cls-1" points="736.28 211.7 724.77 210.55 719.7 195.08 726.86 186.92 706.23 180.28 719.12 166.58 711.15 145.63 810.03 79.62 746.22 59.09 667.19 111.86 689.99 40.99 635.86 23.58 577.04 206.37 631.18 223.79 655.75 147.43 692.37 243.48 756.18 264.01 736.28 211.7"/><path class="cls-2" d="M591.81,9.4l54.13,17.42-22.8,70.87,79-52.78L766,65.44l-98.87,66,45,118.38-63.81-20.53L611.7,133.26l-24.57,76.36L533,192.2Z"/><path class="cls-3" d="M209.26,680.06,113.75,208.87l99.3-44.19s35.31,44.19,186.7,44.19,186.69-44.19,186.69-44.19l99.31,44.19L591.29,680.06"/><polygon class="cls-4" points="547.17 680.06 642.99 189.37 642.99 189.37 686.8 208.87 591.29 680.06 547.17 680.06"/><path class="cls-5" d="M512.87,552.45S598,513.57,645.52,577.68c0,0,11.59,45.92-27.06,63.2s-99.53,38.63-105.59,39.55-84.61-6.58-84.61-6.58l-9.42-72.3Z"/><path class="cls-6" d="M411.68,529.94s-21.68-4.37-40.12-15.73c-17.38-10.71-51.15-24.43-66.11,8.18s23.27,64.84,23.27,64.84,37.6,44.5,130.19,21c0,0,41.69-9.2,54-55.75,9.5-36,1.79-31.72-44-26.09S421.52,530.83,411.68,529.94Z"/><path class="cls-7" d="M637.37,724.87s65.77-17.75,132-52.17c0,0-10.91-15.35-70.93-7.85C698.41,664.85,630.89,715,637.37,724.87Z"/><path class="cls-8" d="M696,664.58c-6.25-.86-24-4.29-45.32-17.12-26.6-16-90.71-63.09-119.36-11.59s24.55,133.34,106.06,89l.34-.35-.34.35s60-61.08,93.78-62.08Z"/><path class="cls-9" d="M435.21,726.71s24.55,31.71,56.61,22.5S604,718.52,579.63,615.07c0,0-31.2-64.67-80.31,20.76,0,0-10.38,30.18-90.11,28.64,0,0-36.75-1.74-37.77,15.5,0,0,4.09,8.67,17.52,8.67C389,688.64,413.38,689.54,435.21,726.71Z"/><path class="cls-10" d="M166.48,641.79s-94.8-23.87-62.74,58.66c0,0,44.12,49.11,162.22,0C266,700.45,234,659.53,166.48,641.79Z"/><path class="cls-11" d="M176.85,644.78s-18.55-65,16.92-83.47c0,0,7.71-8.35,22.55,1.11s60.91,26.73,95.06,4.46L378.6,607S219.27,754.51,176.85,644.78Z"/><path class="cls-7" d="M234.69,742.05s99.58-88,231.21-79.11L412,626.79S278.34,631.56,276.29,637,234.69,742.05,234.69,742.05Z"/><path class="cls-12" d="M234.69,744.31s41.6-112.44,231.21-79.11c0,0,8.87-116-141.18-67.52C324.72,597.68,227.87,622.91,234.69,744.31Z"/><text class="cls-13" transform="translate(234.34 473.23)">CHIP</text><text class="cls-14" transform="translate(360.12 340.47)">n<tspan class="cls-15" x="82.35" y="0">’</tspan></text></g></g></svg>